<?xml version="1.0" standalone="no"?>
<!DOCTYPE svg PUBLIC "-//W3C//DTD SVG 20010904//EN"
 "http://www.w3.org/TR/2001/REC-SVG-20010904/DTD/svg10.dtd">
<svg version="1.0" xmlns="http://www.w3.org/2000/svg"
 width="700.000000pt" height="700.000000pt" viewBox="0 0 700.000000 700.000000"
 preserveAspectRatio="xMidYMid meet">
<metadata>
Created by potrace 1.14, written by Peter Selinger 2001-2017
</metadata>
<g transform="translate(0.000000,700.000000) scale(0.100000,-0.100000)"
fill="#000000" stroke="none">
<path d="M1359 6700 c-62 -11 -174 -57 -229 -93 -60 -41 -139 -124 -169 -177
-21 -37 -22 -42 -7 -37 87 33 295 32 432 -3 375 -96 654 -450 654 -831 0 -186
-135 -319 -311 -306 -153 10 -253 114 -270 278 -4 42 -17 100 -30 128 -27 64
-102 133 -166 155 -183 63 -383 -73 -383 -260 0 -23 -3 -56 -6 -73 l-7 -32
-17 29 c-52 85 -200 80 -245 -9 -23 -43 -21 -116 2 -147 68 -91 181 -92 240
-3 l23 34 0 -140 c0 -77 3 -241 7 -365 l6 -224 66 19 c97 29 324 28 436 -2
381 -102 655 -451 655 -832 0 -186 -135 -319 -311 -306 -153 10 -253 114 -270
278 -4 42 -17 100 -30 128 -27 64 -102 133 -166 155 -183 63 -383 -73 -383
-260 0 -23 -3 -56 -6 -73 l-7 -32 -17 29 c-34 55 -128 79 -190 47 -46 -24 -71
-68 -72 -126 -1 -145 179 -200 259 -80 l23 34 0 -140 c0 -77 3 -241 7 -365 l6
-224 66 19 c97 29 324 28 436 -2 381 -102 655 -451 655 -832 0 -186 -135 -319
-311 -306 -153 10 -253 114 -270 278 -10 103 -40 169 -101 224 -62 56 -130 79
-212 73 -149 -12 -266 -132 -266 -274 0 -23 -3 -56 -6 -73 l-7 -32 -17 29
c-34 55 -128 79 -190 47 -46 -24 -71 -68 -72 -126 -1 -143 179 -200 258 -82
l21 32 6 -97 c8 -115 25 -183 68 -271 43 -88 160 -204 249 -248 135 -68 -34
-63 2310 -63 2344 0 2175 -5 2310 63 89 44 206 160 249 248 65 133 61 -51 61
2453 0 2494 4 2329 -57 2450 -58 116 -166 221 -279 272 -128 57 -19 54 -2291
53 -1148 -1 -2108 -5 -2134 -9z m3712 -4386 c70 -33 123 -86 154 -155 63 -142
4 -306 -138 -381 -42 -23 -45 -23 -548 -26 -488 -3 -508 -2 -561 18 -64 24
-128 83 -160 149 -18 36 -23 63 -23 126 0 70 4 87 30 134 46 83 112 131 210
151 22 5 254 8 515 7 462 -2 476 -3 521 -23z"/>
<path d="M881 929 c-1 -218 40 -330 169 -459 80 -81 154 -126 255 -156 57 -17
153 -19 1795 -20 954 -1 1716 2 1693 6 -23 5 -268 69 -545 142 l-503 133
-1200 5 -1200 5 -85 33 c-178 68 -302 199 -361 382 l-18 55 0 -126z"/>
<path d="M6107 1018 c-14 -66 -85 -193 -139 -250 -122 -126 -242 -177 -440
-185 l-127 -6 -45 -58 c-81 -105 -187 -174 -320 -210 l-71 -19 335 4 c280 3
345 6 395 20 99 29 175 75 256 156 129 128 172 249 167 465 -2 89 -5 110 -11
83z"/>
</g>
</svg>
